<?xml version="1.0" encoding="utf-8" ?><svg xmlns="http://www.w3.org/2000/svg" xmlns:xlink="http://www.w3.org/1999/xlink" width="54" height="60" viewBox="0 0 54 60"><path fill="#00558F" transform="matrix(0.2 0 0 0.2 1.52588e-05 0)" d="M0 0L270 0L270 118.834L269.552 118.85C269.048 118.316 268.823 117.528 268.55 116.855C268.249 123.67 267.707 130.569 266.961 137.35C266.117 143.684 265.262 150 263.988 156.266C262.883 161.06 261.696 165.835 260.427 170.589C259.947 172.34 259.519 174.418 258.769 176.058C256.921 181.905 254.874 187.886 252.184 193.403C250.455 197.92 246.367 206.398 243.613 210.22C240.996 214.882 236.948 221.629 233.474 225.557C229.126 231.87 222.607 239.529 216.828 244.579C211.378 251.439 185.871 271.803 178.261 275.212C174.742 277.928 170.544 280.152 166.69 282.372C159.906 286.278 152.993 289.956 145.963 293.401C142.449 295.133 138.878 296.983 135.225 298.405L135.673 298.762C135.657 299.177 135.633 299.586 135.588 300L134.33 300C132.373 298.363 126.901 296.378 124.24 295.07C119.105 292.524 114.013 289.891 108.967 287.174C57.7762 259.173 20.378 221.378 6.26929 163.503C4.11339 154.338 2.51731 145.051 1.48991 135.693C1.09317 132.092 0.960059 123.519 0.0623994 120.637C0.04239 120.573 0.0207998 120.509 0 120.445L0 0Z"/><path fill="#EE1B2E" transform="matrix(0.2 0 0 0.2 1.52588e-05 0)" d="M187.612 135.858C197.334 133.316 205.989 127.491 215.932 125.763C235.061 122.438 248.491 137.326 266.961 137.35C266.117 143.684 265.262 150 263.988 156.266C262.883 161.06 261.696 165.835 260.427 170.589C259.947 172.34 259.519 174.418 258.769 176.058C256.921 181.905 254.874 187.886 252.184 193.403C250.455 197.92 246.367 206.398 243.613 210.22C240.996 214.882 236.948 221.629 233.474 225.557C229.126 231.87 222.607 239.529 216.828 244.579C211.378 251.439 185.871 271.803 178.261 275.212C174.742 277.928 170.544 280.152 166.69 282.372C159.906 286.278 152.993 289.956 145.963 293.401C142.449 295.133 138.878 296.983 135.225 298.405C135.385 286.648 135.094 274.905 134.994 263.152C134.968 256.769 134.975 250.385 135.016 244.002C134.78 237.192 135.011 230.295 135.015 223.477C134.975 217.121 134.968 210.765 134.994 204.409C135.01 197.901 135.119 191.375 134.967 184.87L141.462 184.552C151.589 182.563 157.414 180.291 166.125 174.799C173.091 169.107 177.582 163.771 182.044 155.984C185.103 149.382 186.845 143.097 187.612 135.858Z"/><path fill="#FEF300" transform="matrix(0.2 0 0 0.2 1.52588e-05 0)" d="M134.994 204.409C149.583 205.303 161.393 215.622 176.003 216.394C194.701 217.383 208.887 201.408 228.071 204.92C233.558 205.925 238.469 208.194 243.613 210.22C240.996 214.882 236.948 221.629 233.474 225.557C229.126 231.87 222.607 239.529 216.828 244.579C211.378 251.439 185.871 271.803 178.261 275.212C174.742 277.928 170.544 280.152 166.69 282.372C159.906 286.278 152.993 289.956 145.963 293.401C142.449 295.133 138.878 296.983 135.225 298.405C135.385 286.648 135.094 274.905 134.994 263.152C134.968 256.769 134.975 250.385 135.016 244.002C134.78 237.192 135.011 230.295 135.015 223.477C134.975 217.121 134.968 210.765 134.994 204.409Z"/><path fill="#FEF300" transform="matrix(0.2 0 0 0.2 1.52588e-05 0)" d="M135.016 244.002C151.654 245.614 162.705 256.508 179.255 255.928C183.311 255.785 187.368 254.87 191.203 253.573C196.682 251.719 212.281 243.952 216.828 244.579C211.378 251.439 185.871 271.803 178.261 275.212C174.742 277.928 170.544 280.152 166.69 282.372C159.906 286.278 152.993 289.956 145.963 293.401C142.449 295.133 138.878 296.983 135.225 298.405C135.385 286.648 135.094 274.905 134.994 263.152C134.968 256.769 134.975 250.385 135.016 244.002Z"/><path fill="#EE1B2E" transform="matrix(0.2 0 0 0.2 1.52588e-05 0)" d="M134.994 263.152C146.026 263.323 155.715 270.015 166 273.223C170.309 274.567 174.158 274.323 178.261 275.212C174.742 277.928 170.544 280.152 166.69 282.372C159.906 286.278 152.993 289.956 145.963 293.401C142.449 295.133 138.878 296.983 135.225 298.405C135.385 286.648 135.094 274.905 134.994 263.152Z"/><path fill="#EE1B2E" transform="matrix(0.2 0 0 0.2 1.52588e-05 0)" d="M135.015 223.477C149.603 223.861 161.429 235.043 177.009 235.357C195.281 235.725 208.469 221.128 227.251 223.81C229.122 224.078 231.915 224.52 233.474 225.557C229.126 231.87 222.607 239.529 216.828 244.579C212.281 243.952 196.682 251.719 191.203 253.573C187.368 254.87 183.311 255.785 179.255 255.928C162.705 256.508 151.654 245.614 135.016 244.002C134.78 237.192 135.011 230.295 135.015 223.477Z"/><path fill="#EE1B2E" transform="matrix(0.2 0 0 0.2 1.52588e-05 0)" d="M187.612 135.858C197.334 133.316 205.989 127.491 215.932 125.763C235.061 122.438 248.491 137.326 266.961 137.35C266.117 143.684 265.262 150 263.988 156.266C262.883 161.06 261.696 165.835 260.427 170.589C259.947 172.34 259.519 174.418 258.769 176.058C240.783 171.895 230.685 160.529 210.521 166.728C202.566 169.173 195.338 173.542 187.233 175.568C182.038 176.867 170.789 177.599 166.125 174.799C173.091 169.107 177.582 163.771 182.044 155.984C185.103 149.382 186.845 143.097 187.612 135.858Z"/><path fill="#FEF300" transform="matrix(0.2 0 0 0.2 1.52588e-05 0)" d="M187.612 135.858C197.334 133.316 205.989 127.491 215.932 125.763C235.061 122.438 248.491 137.326 266.961 137.35C266.117 143.684 265.262 150 263.988 156.266C259.367 155.771 254.829 154.684 250.484 153.032C238.524 148.568 229.094 142.411 215.684 144.874C207.969 146.291 201.125 150.134 193.873 152.898C189.988 154.379 186.137 155.32 182.044 155.984C185.103 149.382 186.845 143.097 187.612 135.858Z"/><path fill="#FEF300" transform="matrix(0.2 0 0 0.2 1.52588e-05 0)" d="M166.125 174.799C170.789 177.599 182.038 176.867 187.233 175.568C195.338 173.542 202.566 169.173 210.521 166.728C230.685 160.529 240.783 171.895 258.769 176.058C256.921 181.905 254.874 187.886 252.184 193.403C236.288 186.583 225.459 180.231 207.926 186.643C202.798 188.519 197.906 191.011 192.771 192.874C176.156 198.903 167.369 194.834 152.056 188.446C148.614 187.01 144.806 186.111 141.462 184.552C151.589 182.563 157.414 180.291 166.125 174.799Z"/><path fill="#FEF300" transform="matrix(0.2 0 0 0.2 1.52588e-05 0)" d="M135.001 46.084C138.133 46.3605 141.062 46.7903 144.081 47.6814C155.61 51.085 165.778 58.2837 178.262 58.0424C195.301 57.713 207.911 44.6081 225.511 46.2643C240.873 47.7097 252.095 58.963 268.698 58.015C268.702 64.3411 268.786 70.678 268.703 77.0028L268.698 97.561C268.712 103.933 268.868 110.335 268.449 116.696L268.55 116.855C268.249 123.67 267.707 130.569 266.961 137.35C248.491 137.326 235.061 122.438 215.932 125.763C205.989 127.491 197.334 133.316 187.612 135.858C187.812 127.494 186.996 123.999 185.411 115.961C182.629 109.096 179.748 103.73 175.285 97.8025L175.173 97.6767C164.132 85.2877 151.379 80.0633 135.031 79.1321L135.004 65.0629C134.931 58.739 134.992 52.4086 135.001 46.084Z"/><path fill="#FEF300" transform="matrix(0.2 0 0 0.2 1.52588e-05 0)" d="M175.285 97.8025C176.835 97.1105 180.991 97.4353 182.895 97.2041C185.689 96.855 188.439 96.2097 191.097 95.2792C198.864 92.5645 206.084 88.3821 214.161 86.5546C231.485 82.6348 241.482 92.5655 256.834 96.4371C260.771 97.4301 264.668 97.5224 268.698 97.561C268.712 103.933 268.868 110.335 268.449 116.696L268.55 116.855C268.249 123.67 267.707 130.569 266.961 137.35C248.491 137.326 235.061 122.438 215.932 125.763C205.989 127.491 197.334 133.316 187.612 135.858C187.812 127.494 186.996 123.999 185.411 115.961C182.629 109.096 179.748 103.73 175.285 97.8025Z"/><path fill="#EE1B2E" transform="matrix(0.2 0 0 0.2 1.52588e-05 0)" d="M185.411 115.961C188.845 115.032 192.182 113.981 195.486 112.647C202.474 109.826 209.173 106.352 216.68 105.068C231.365 102.557 242.969 111.778 256.464 115.352C260.414 116.398 264.377 116.684 268.449 116.696L268.55 116.855C268.249 123.67 267.707 130.569 266.961 137.35C248.491 137.326 235.061 122.438 215.932 125.763C205.989 127.491 197.334 133.316 187.612 135.858C187.812 127.494 186.996 123.999 185.411 115.961Z"/><path fill="#EE1B2E" transform="matrix(0.2 0 0 0.2 1.52588e-05 0)" d="M135.004 65.0629C150.283 65.9888 162.226 77.1077 177.938 77.0149C195.134 76.9134 208.056 63.5825 225.627 65.3165C241.26 66.8592 250.765 77.6828 268.703 77.0028L268.698 97.561C264.668 97.5224 260.771 97.4301 256.834 96.4371C241.482 92.5655 231.485 82.6348 214.161 86.5546C206.084 88.3821 198.864 92.5645 191.097 95.2792C188.439 96.2097 185.689 96.855 182.895 97.2041C180.991 97.4353 176.835 97.1105 175.285 97.8025L175.173 97.6767C164.132 85.2877 151.379 80.0633 135.031 79.1321L135.004 65.0629Z"/><path fill="#FEF300" transform="matrix(0.2 0 0 0.2 1.52588e-05 0)" d="M97.5593 94.6125C108.482 84.282 120.066 79.8083 134.991 79.158L135.006 148.181C135.006 160.398 135.213 172.658 134.967 184.87C119.535 184.109 106.471 179.304 95.8864 167.616C86.063 156.769 81.5439 143.197 82.2807 128.652C83.026 115.815 88.4637 103.701 97.5593 94.6125Z"/><path fill="#EE1B2E" transform="matrix(0.2 0 0 0.2 1.52588e-05 0)" d="M135.014 25.4985C148.882 25.9179 160.434 36.0135 174.291 37.3194C192.459 39.0317 205.027 25.4492 222.145 25.4646C238.557 25.4793 252.003 39.1168 268.692 37.476L268.698 58.015C252.095 58.963 240.873 47.7097 225.511 46.2643C207.911 44.6081 195.301 57.713 178.262 58.0424C165.778 58.2837 155.61 51.085 144.081 47.6814C141.062 46.7903 138.133 46.3605 135.001 46.084C134.908 39.2272 135.005 32.3567 135.014 25.4985Z"/><path fill="#FEF300" transform="matrix(0.2 0 0 0.2 1.52588e-05 0)" d="M135.025 6.4698C150.508 7.02328 162.39 18.8787 178.822 18.4196C195.454 17.955 208.501 4.92132 225.609 6.64616C237.088 7.80359 246.771 14.9638 257.879 17.4928C261.436 18.3026 265.068 18.4455 268.703 18.4749L268.692 37.476C252.003 39.1168 238.557 25.4793 222.145 25.4646C205.027 25.4492 192.459 39.0317 174.291 37.3194C160.434 36.0135 148.882 25.9179 135.014 25.4985C134.964 19.1557 134.967 12.8126 135.025 6.4698Z"/><path fill="#EE1B2E" transform="matrix(0.2 0 0 0.2 1.52588e-05 0)" d="M135.003 1.25733C152.812 1.50836 170.652 1.30608 188.464 1.30488L268.75 1.26384C268.658 6.99534 268.857 12.7508 268.703 18.4749C265.068 18.4455 261.436 18.3026 257.879 17.4928C246.771 14.9638 237.088 7.80359 225.609 6.64616C208.501 4.92132 195.454 17.955 178.822 18.4196C162.39 18.8787 150.508 7.02328 135.025 6.4698L135.003 1.25733Z"/><path fill="#FEF300" transform="matrix(0.2 0 0 0.2 1.52588e-05 0)" d="M78.0624 205.685C80.1887 205.376 82.1594 206.858 82.4529 208.987C82.7464 211.115 81.2504 213.075 79.1201 213.354C77.0108 213.629 75.0743 212.152 74.7837 210.044C74.4931 207.937 75.9573 205.99 78.0624 205.685Z"/><path fill="#FEF300" transform="matrix(0.2 0 0 0.2 1.52588e-05 0)" d="M47.1829 73.9268C49.3077 73.6596 51.2452 75.1696 51.5052 77.2954C51.7652 79.4211 50.2487 81.3536 48.1222 81.6064C46.0056 81.8581 44.0843 80.3503 43.8255 78.2347C43.5668 76.119 45.0681 74.1926 47.1829 73.9268Z"/><path fill="#FEF300" transform="matrix(0.2 0 0 0.2 1.52588e-05 0)" d="M77.6185 161.869C79.6823 161.322 81.7989 162.55 82.3477 164.614C82.8964 166.677 81.6697 168.795 79.6069 169.345C77.5415 169.896 75.4206 168.668 74.8712 166.602C74.3218 164.536 75.5522 162.416 77.6185 161.869Z"/><path fill="#FEF300" transform="matrix(0.2 0 0 0.2 1.52588e-05 0)" d="M46.7211 30.1095C48.7893 29.5917 50.8864 30.8454 51.4096 32.9122C51.9328 34.979 50.6846 37.0794 48.6192 37.608C46.5461 38.1385 44.4362 36.8847 43.9111 34.8102C43.386 32.7358 44.6453 30.6292 46.7211 30.1095Z"/><path fill="#FEF300" transform="matrix(0.2 0 0 0.2 1.52588e-05 0)" d="M46.6894 161.859C48.7611 161.316 50.879 162.562 51.4124 164.636C51.9457 166.71 50.6913 168.822 48.6149 169.347C46.5512 169.868 44.4544 168.623 43.9243 166.561C43.3942 164.5 44.6302 162.398 46.6894 161.859Z"/><path fill="#FEF300" transform="matrix(0.2 0 0 0.2 1.52588e-05 0)" d="M109.042 73.9264C111.161 73.6203 113.124 75.0937 113.423 77.213C113.722 79.3323 112.241 81.2907 110.121 81.5817C108.011 81.8712 106.065 80.4 105.768 78.2913C105.471 76.1827 106.935 74.2309 109.042 73.9264Z"/><path fill="#FEF300" transform="matrix(0.2 0 0 0.2 1.52588e-05 0)" d="M108.559 30.1241C110.616 29.554 112.746 30.7595 113.316 32.8167C113.886 34.8739 112.68 37.0037 110.623 37.5737C108.566 38.1436 106.436 36.938 105.866 34.8809C105.296 32.8238 106.502 30.6942 108.559 30.1241Z"/><path fill="#FEF300" transform="matrix(0.2 0 0 0.2 1.52588e-05 0)" d="M78.1288 73.9259C80.2439 73.6568 82.1774 75.151 82.4506 77.2655C82.7237 79.38 81.2333 81.3164 79.1194 81.5936C76.9996 81.8716 75.0568 80.3763 74.7829 78.256C74.509 76.1357 76.0081 74.1958 78.1288 73.9259Z"/><path fill="#FEF300" transform="matrix(0.2 0 0 0.2 1.52588e-05 0)" d="M77.6067 30.1233C79.671 29.5633 81.7977 30.7862 82.352 32.852C82.9063 34.9178 81.6775 37.0411 79.6102 37.5897C77.5509 38.1362 75.4377 36.9133 74.8855 34.8555C74.3333 32.7977 75.5505 30.6811 77.6067 30.1233Z"/><path fill="#FEF300" transform="matrix(0.2 0 0 0.2 1.52588e-05 0)" d="M77.8795 249.635C79.261 249.369 80.6778 249.875 81.5784 250.956C82.479 252.037 82.7211 253.522 82.2105 254.833C81.6998 256.144 80.5171 257.073 79.1227 257.26C77.0498 257.538 75.1321 256.116 74.7956 254.052C74.459 251.988 75.8257 250.03 77.8795 249.635Z"/><path fill="#FEF300" transform="matrix(0.2 0 0 0.2 1.52588e-05 0)" d="M108.851 249.633C110.892 249.232 112.884 250.519 113.357 252.545C113.831 254.57 112.615 256.607 110.608 257.152C109.244 257.523 107.787 257.119 106.809 256.099C105.83 255.08 105.486 253.608 105.912 252.26C106.337 250.913 107.465 249.905 108.851 249.633Z"/><path fill="#FEF300" transform="matrix(0.2 0 0 0.2 1.52588e-05 0)" d="M92.915 183.874C94.9671 183.241 97.1415 184.403 97.7552 186.461C98.3688 188.519 97.186 190.682 95.1223 191.276C93.086 191.863 90.9577 190.699 90.3522 188.668C89.7467 186.638 90.8902 184.498 92.915 183.874Z"/><path fill="#FEF300" transform="matrix(0.2 0 0 0.2 1.52588e-05 0)" d="M93.3593 227.665C95.3895 227.29 97.3558 228.577 97.8236 230.588C98.2913 232.599 97.0952 234.622 95.1078 235.182C93.7388 235.567 92.2688 235.169 91.2813 234.145C90.2939 233.122 89.9488 231.638 90.3831 230.284C90.8174 228.93 91.9607 227.924 93.3593 227.665Z"/><path fill="#FEF300" transform="matrix(0.2 0 0 0.2 1.52588e-05 0)" d="M47.1791 205.694C49.3031 205.421 51.2436 206.929 51.5043 209.054C51.765 211.18 50.2463 213.111 48.1193 213.36C46.0098 213.606 44.0974 212.102 43.8389 209.994C43.5803 207.886 45.0727 205.965 47.1791 205.694Z"/><path fill="#FEF300" transform="matrix(0.2 0 0 0.2 1.52588e-05 0)" d="M46.9852 117.872C49.0788 117.496 51.0821 118.885 51.4646 120.977C51.8471 123.069 50.4647 125.077 48.3735 125.466C46.2732 125.857 44.2552 124.467 43.871 122.365C43.4868 120.264 44.8826 118.25 46.9852 117.872Z"/><path fill="#FEF300" transform="matrix(0.2 0 0 0.2 1.52588e-05 0)" d="M30.992 183.858C32.325 183.456 33.7713 183.803 34.7768 184.766C35.7824 185.729 36.1913 187.159 35.8469 188.508C35.5025 189.857 34.4582 190.916 33.114 191.279C31.0775 191.829 28.9765 190.642 28.3966 188.614C27.8166 186.586 28.9725 184.468 30.992 183.858Z"/><path fill="#FEF300" transform="matrix(0.2 0 0 0.2 1.52588e-05 0)" d="M109.169 205.679C111.275 205.441 113.179 206.946 113.434 209.05C113.688 211.155 112.198 213.071 110.095 213.341C107.969 213.615 106.028 212.104 105.771 209.977C105.514 207.849 107.039 205.92 109.169 205.679Z"/><path fill="#FEF300" transform="matrix(0.2 0 0 0.2 1.52588e-05 0)" d="M123.863 52.1264C125.908 51.4878 128.082 52.6372 128.705 54.6869C129.329 56.7365 128.163 58.9018 126.109 59.5104C124.076 60.1127 121.938 58.962 121.321 56.9335C120.704 54.905 121.839 52.7585 123.863 52.1264Z"/><path fill="#FEF300" transform="matrix(0.2 0 0 0.2 1.52588e-05 0)" d="M30.9411 52.1351C32.2743 51.7115 33.7323 52.0425 34.7518 53.0004C35.7713 53.9582 36.1927 55.3928 35.853 56.7498C35.5133 58.1068 34.4659 59.1737 33.1153 59.5383C31.0897 60.0851 28.9983 58.9133 28.4071 56.9002C27.8159 54.887 28.9415 52.7704 30.9411 52.1351Z"/><path fill="#FEF300" transform="matrix(0.2 0 0 0.2 1.52588e-05 0)" d="M124.121 271.637C126.148 271.157 128.19 272.373 128.734 274.383C129.278 276.394 128.128 278.474 126.136 279.082C124.79 279.493 123.326 279.138 122.318 278.156C121.309 277.174 120.916 275.72 121.291 274.363C121.666 273.006 122.751 271.962 124.121 271.637Z"/><path fill="#FEF300" transform="matrix(0.2 0 0 0.2 1.52588e-05 0)" d="M15.7856 161.862C17.8587 161.351 19.9532 162.62 20.4584 164.695C20.9637 166.77 19.6875 168.86 17.6112 169.359C15.5442 169.855 13.4652 168.586 12.9622 166.52C12.4592 164.455 13.7218 162.372 15.7856 161.862Z"/><path fill="#FEF300" transform="matrix(0.2 0 0 0.2 1.52588e-05 0)" d="M16.2199 73.9312C17.6099 73.7557 18.9858 74.3476 19.8142 75.4774C20.6426 76.6073 20.7933 78.0975 20.2078 79.3703C19.6224 80.6432 18.3928 81.4985 16.9958 81.6047C14.9088 81.7635 13.0759 80.2289 12.8653 78.1464C12.6548 76.0639 14.1433 74.1935 16.2199 73.9312Z"/><path fill="#FEF300" transform="matrix(0.2 0 0 0.2 1.52588e-05 0)" d="M124.29 227.674C126.31 227.288 128.277 228.555 128.761 230.554C129.245 232.553 128.075 234.579 126.103 235.16C124.738 235.562 123.263 235.18 122.265 234.166C121.267 233.152 120.908 231.671 121.332 230.313C121.756 228.955 122.893 227.94 124.29 227.674Z"/><path fill="#FEF300" transform="matrix(0.2 0 0 0.2 1.52588e-05 0)" d="M31.5263 139.841C33.5972 139.522 35.5441 140.915 35.9103 142.978C36.2764 145.041 34.9276 147.019 32.8732 147.432C31.5025 147.707 30.0901 147.219 29.1822 146.155C28.2743 145.092 28.0131 143.621 28.4998 142.31C28.9864 140.999 30.1445 140.055 31.5263 139.841Z"/><path fill="#FEF300" transform="matrix(0.2 0 0 0.2 1.52588e-05 0)" d="M62.4704 227.658C64.5836 227.325 66.5638 228.777 66.8824 230.892C67.2011 233.007 65.7365 234.978 63.619 235.282C61.5213 235.584 59.5733 234.136 59.2576 232.041C58.9419 229.945 60.3768 227.987 62.4704 227.658Z"/><path fill="#FEF300" transform="matrix(0.2 0 0 0.2 1.52588e-05 0)" d="M92.9196 52.1263C94.969 51.4973 97.138 52.6611 97.7471 54.7165C98.3562 56.7719 97.1716 58.9295 95.1104 59.5187C93.0772 60.0999 90.9553 58.9348 90.3544 56.9074C89.7535 54.8799 90.898 52.7468 92.9196 52.1263Z"/><path fill="#FEF300" transform="matrix(0.2 0 0 0.2 1.52588e-05 0)" d="M16.0442 117.883C18.1419 117.514 20.1413 118.916 20.5089 121.014C20.8766 123.112 19.4731 125.11 17.3749 125.476C15.2787 125.842 13.2826 124.44 12.9153 122.345C12.548 120.249 13.9485 118.251 16.0442 117.883Z"/><path fill="#FEF300" transform="matrix(0.2 0 0 0.2 1.52588e-05 0)" d="M31.4958 95.9191C33.5693 95.5825 35.5304 96.9682 35.9057 99.035C36.281 101.102 34.9321 103.088 32.8727 103.502C31.5059 103.777 30.0973 103.292 29.1892 102.234C28.281 101.176 28.0149 99.7107 28.4932 98.4012C28.9715 97.0917 30.1197 96.1426 31.4958 95.9191Z"/><path fill="#FEF300" transform="matrix(0.2 0 0 0.2 1.52588e-05 0)" d="M15.749 30.1149C17.8234 29.5901 19.9281 30.8557 20.4372 32.934C20.9462 35.0123 19.6645 37.1074 17.5824 37.6005C15.5226 38.0884 13.4549 36.8235 12.9514 34.7674C12.4478 32.7114 13.6969 30.6342 15.749 30.1149Z"/><path fill="#FEF300" transform="matrix(0.2 0 0 0.2 1.52588e-05 0)" d="M61.969 183.868C63.3236 183.464 64.7907 183.834 65.7915 184.833C66.7924 185.831 67.1662 187.297 66.7655 188.653C66.3649 190.008 65.2541 191.036 63.8714 191.33C61.8488 191.76 59.8474 190.516 59.3365 188.513C58.8257 186.509 59.9874 184.459 61.969 183.868Z"/><path fill="#FEF300" transform="matrix(0.2 0 0 0.2 1.52588e-05 0)" d="M93.3352 8.12652C95.3561 7.74596 97.3197 9.01947 97.7964 11.0199C98.2731 13.0203 97.0949 15.0425 95.1196 15.6143C93.755 16.0093 92.2838 15.6214 91.2914 14.605C90.2989 13.5886 89.9462 12.1086 90.3736 10.7539C90.801 9.3991 91.9391 8.3894 93.3352 8.12652Z"/><path fill="#FEF300" transform="matrix(0.2 0 0 0.2 1.52588e-05 0)" d="M31.4881 8.09539C33.5619 7.75591 35.5252 9.14098 35.9008 11.2085C36.2764 13.2761 34.9258 15.2632 32.8652 15.6749C31.4998 15.9476 30.0935 15.4624 29.1868 14.4057C28.2802 13.349 28.0142 11.8853 28.4913 10.5773C28.9683 9.2692 30.1141 8.32033 31.4881 8.09539Z"/><path fill="#FEF300" transform="matrix(0.2 0 0 0.2 1.52588e-05 0)" d="M75.3592 117.887C77.4528 117.547 79.4274 118.963 79.7763 121.055C80.1252 123.147 78.717 125.128 76.6263 125.485C74.5233 125.845 72.5286 124.427 72.1776 122.322C71.8267 120.218 73.2533 118.229 75.3592 117.887Z"/><path fill="#FEF300" transform="matrix(0.2 0 0 0.2 1.52588e-05 0)" d="M62.0285 52.1036C63.3818 51.7223 64.8355 52.1089 65.8206 53.1121C66.8058 54.1153 67.1659 55.5758 66.76 56.922C66.3541 58.2682 65.2468 59.2862 63.8713 59.5777C61.8389 60.0084 59.8312 58.7494 59.3338 56.7322C58.8365 54.7151 60.0288 52.667 62.0285 52.1036Z"/><path fill="#FEF300" transform="matrix(0.2 0 0 0.2 1.52588e-05 0)" d="M62.3898 139.848C63.7566 139.607 65.1472 140.12 66.0295 141.192C66.9117 142.263 67.1488 143.727 66.6501 145.022C66.1514 146.317 64.994 147.243 63.621 147.446C61.5388 147.754 59.5955 146.332 59.2588 144.254C58.9221 142.176 60.3169 140.214 62.3898 139.848Z"/><path fill="#FEF300" transform="matrix(0.2 0 0 0.2 1.52588e-05 0)" d="M62.3717 95.9152C64.4406 95.5376 66.4296 96.8907 66.8383 98.9537C67.2469 101.017 65.9239 103.026 63.8672 103.465C62.5091 103.756 61.0998 103.292 60.1797 102.251C59.2596 101.211 58.9713 99.7558 59.4254 98.4432C59.8794 97.1307 61.0054 96.1646 62.3717 95.9152Z"/><path fill="#FEF300" transform="matrix(0.2 0 0 0.2 1.52588e-05 0)" d="M124.4 8.09561C126.496 7.76289 128.466 9.19126 128.801 11.2873C129.136 13.3833 127.71 15.3545 125.614 15.692C123.515 16.0299 121.54 14.601 121.205 12.5017C120.869 10.4023 122.3 8.42886 124.4 8.09561Z"/><path fill="#FEF300" transform="matrix(0.2 0 0 0.2 1.52588e-05 0)" d="M62.4355 8.12281C63.7997 7.89291 65.182 8.41447 66.0544 9.48816C66.9267 10.5619 67.1542 12.0218 66.6499 13.31C66.1456 14.5982 64.9874 15.5156 63.618 15.7116C61.5367 16.0096 59.6027 14.5786 59.279 12.5012C58.9553 10.4237 60.3622 8.4722 62.4355 8.12281Z"/><path fill="#00558F" fill-opacity="0.98431373" transform="matrix(0.2 0 0 0.2 1.52588e-05 0)" d="M268.55 116.855C268.823 117.528 269.048 118.316 269.552 118.85L270 118.834L270 120.163C269.976 120.223 269.95 120.283 269.927 120.343C269.2 122.22 268.921 132.618 268.536 135.76C267.315 145.746 265.828 155.81 263.258 165.546C260.073 177.611 256.033 189.28 250.506 200.487C228.334 245.447 187.018 275.637 142.598 296.545C140.835 297.375 137.063 298.578 135.802 300L135.588 300C135.633 299.586 135.657 299.177 135.673 298.762L135.225 298.405C138.878 296.983 142.449 295.133 145.963 293.401C152.993 289.956 159.906 286.278 166.69 282.372C170.544 280.152 174.742 277.928 178.261 275.212C185.871 271.803 211.378 251.439 216.828 244.579C222.607 239.529 229.126 231.87 233.474 225.557C236.948 221.629 240.996 214.882 243.613 210.22C246.367 206.398 250.455 197.92 252.184 193.403C254.874 187.886 256.921 181.905 258.769 176.058C259.519 174.418 259.947 172.34 260.427 170.589C261.696 165.835 262.883 161.06 263.988 156.266C265.262 150 266.117 143.684 266.961 137.35C267.707 130.569 268.249 123.67 268.55 116.855Z"/></svg>